<?xml version="1.0" encoding="utf-8"?><!-- Uploaded to: SVG Repo, www.svgrepo.com, Generator: SVG Repo Mixer Tools -->
<svg width="800px" height="800px" viewBox="0 0 24 24" fill="none" xmlns="http://www.w3.org/2000/svg">
<path d="M20 4.25C19.59 4.25 19.25 4.59 19.25 5V11.19L12.53 4.47C12.32 4.26 11.99 4.19 11.71 4.31C11.43 4.43 11.25 4.7 11.25 5V11.19L4.53 4.47C4.32 4.26 3.99 4.19 3.71 4.31C3.43 4.43 3.25 4.7 3.25 5V19C3.25 19.3 3.43 19.58 3.71 19.69C3.8 19.73 3.9 19.75 4 19.75C4.2 19.75 4.39 19.67 4.53 19.53L11.25 12.81V19C11.25 19.3 11.43 19.58 11.71 19.69C11.8 19.73 11.9 19.75 12 19.75C12.2 19.75 12.39 19.67 12.53 19.53L19.25 12.81V19C19.25 19.41 19.59 19.75 20 19.75C20.41 19.75 20.75 19.41 20.75 19V5C20.75 4.59 20.41 4.25 20 4.25ZM4.75 17.19V6.81L9.94 12L4.75 17.19ZM12.75 17.19V6.81L17.94 12L12.75 17.19Z" fill="#000000"/>
</svg>